<?xml version="1.0" standalone="no"?>
<!DOCTYPE svg PUBLIC "-//W3C//DTD SVG 20010904//EN"
 "http://www.w3.org/TR/2001/REC-SVG-20010904/DTD/svg10.dtd">
<svg version="1.0" xmlns="http://www.w3.org/2000/svg"
 width="700.000000pt" height="700.000000pt" viewBox="0 0 700.000000 700.000000"
 preserveAspectRatio="xMidYMid meet">
<metadata>
Created by potrace 1.11, written by Peter Selinger 2001-2013
</metadata>
<g transform="translate(0.000000,700.000000) scale(0.100000,-0.100000)"
fill="#000000" stroke="none">
<path d="M1980 6120 l-1505 -869 -3 -1749 -2 -1748 582 -337 c321 -185 1003
-578 1517 -875 l933 -539 737 425 c405 234 1085 627 1511 873 l775 447 3 1750
2 1750 -1509 871 c-829 479 -1514 871 -1522 871 -8 0 -691 -392 -1519 -870z
m1302 403 c139 -67 321 -60 470 19 33 18 64 28 74 24 9 -3 100 -55 203 -114
102 -60 589 -341 1081 -625 l895 -516 0 -59 0 -59 -355 -206 c-195 -112 -501
-289 -680 -392 -179 -103 -511 -295 -738 -427 l-414 -239 -73 36 c-74 36 -181
65 -245 65 -65 0 -175 -29 -246 -66 l-72 -36 -1096 633 -1097 634 3 58 3 59
995 574 c547 316 1040 601 1095 633 96 56 101 58 125 43 14 -9 46 -26 72 -39z
m-1684 -2165 c449 -259 943 -544 1097 -633 l280 -162 6 -89 c7 -107 27 -173
78 -251 55 -83 126 -150 199 -187 l32 -17 -2 -1269 -3 -1270 -50 -29 -50 -28
-1095 632 -1095 632 -7 89 c-11 149 -60 256 -161 351 -29 27 -73 62 -100 77
l-47 28 0 1268 0 1267 48 31 c26 17 48 31 50 31 2 1 371 -211 820 -471z"/>
</g>
</svg>
