<svg width="50" height="50" viewBox="0 0 50 50" fill="none" xmlns="http://www.w3.org/2000/svg">
<g id="facebook">
<path id="Vector" d="M24.61 8.12092e-06C19.7395 0.00396306 14.9795 1.45185 10.9318 4.16063C6.88402 6.86941 3.73024 10.7175 1.86912 15.2184C0.00800276 19.7193 -0.476901 24.6709 0.475711 29.4473C1.42832 34.2238 3.77568 38.6105 7.22104 42.0531C10.6664 45.4957 15.0551 47.8395 19.8323 48.7882C24.6095 49.7369 29.5607 49.248 34.0601 47.3832C38.5595 45.5185 42.405 42.3616 45.1105 38.3116C47.816 34.2617 49.26 29.5005 49.26 24.63C49.26 21.3939 48.6223 18.1894 47.3833 15.1999C46.1442 12.2103 44.3282 9.49426 42.039 7.20689C39.7498 4.91952 37.0322 3.10571 34.0416 1.86911C31.0511 0.632515 27.8462 -0.00261968 24.61 8.12092e-06V8.12092e-06ZM31.12 24.52H26.86V39.73H20.54V24.52H17.54V19.16H20.54V15.68C20.54 13.19 21.72 9.30001 26.92 9.30001H31.6V14.51H28.2C28.0112 14.501 27.8226 14.5336 27.6478 14.6056C27.4729 14.6775 27.316 14.787 27.1882 14.9263C27.0603 15.0656 26.9647 15.2313 26.908 15.4116C26.8512 15.592 26.8349 15.7826 26.86 15.97V19.14H31.68L31.12 24.52Z" fill="#69C4CD"/>
</g>
</svg>
