<svg width="50" height="50" viewBox="0 0 50 50" fill="none" xmlns="http://www.w3.org/2000/svg">
<path d="M14.33 24.97C14.4672 25.3558 14.6344 25.7303 14.83 26.09C15.98 28.16 18.16 29.42 21.95 29.78C21.6172 30.0134 21.3336 30.3103 21.1157 30.6535C20.8978 30.9967 20.7497 31.3795 20.68 31.78C19.7255 32.2501 18.628 32.3395 17.61 32.03C16.13 31.57 15.61 28.71 13.36 29.11C12.89 29.2 12.98 29.51 13.36 29.78C14.1789 30.2579 14.813 30.9977 15.16 31.88C15.4159 32.6305 15.9124 33.2754 16.5724 33.7148C17.2323 34.1542 18.0189 34.3634 18.81 34.31C19.3723 34.3137 19.934 34.2736 20.49 34.19C20.49 34.19 20.49 36.43 20.49 37.29C20.49 38.15 19.16 38.6 19.16 39.08C19.16 39.27 19.61 39.29 19.98 39.29C20.7 39.29 22.2 38.69 22.2 37.65C22.2 36.83 22.2 34.05 22.2 33.56C22.1695 33.2975 22.2058 33.0316 22.3054 32.7869C22.4051 32.5422 22.5649 32.3265 22.77 32.16C22.77 32.16 22.85 37.83 22.64 38.6C22.43 39.37 21.94 39.36 21.94 39.76C21.94 40.36 23.75 39.91 24.35 38.6C24.82 37.6 24.61 32.03 24.61 32.03H25.16C25.16 32.03 25.16 34.57 25.16 35.74C25.16 36.91 25.06 38.47 25.79 39.19C26.27 39.66 27.79 40.49 27.79 39.73C27.79 39.29 26.94 38.93 26.94 37.73V32.24C27.62 32.24 27.51 34.05 27.51 34.05L27.56 37.4C27.54 37.8088 27.6672 38.2112 27.9186 38.5341C28.17 38.8571 28.5288 39.0791 28.93 39.16C29.45 39.34 30.58 39.39 30.63 39.09C30.68 38.79 29.28 38.33 29.26 37.38C29.26 36.81 29.26 36.47 29.26 33.96C29.26 31.45 28.92 30.53 27.72 29.79C31.41 29.42 33.72 28.52 34.8 26.13C34.9903 25.7795 35.1252 25.4017 35.2 25.01C35.4724 23.9482 35.6102 22.8563 35.61 21.76C35.6389 20.7993 35.477 19.8425 35.1337 18.9447C34.7904 18.047 34.2725 17.2263 33.61 16.53C34.08 13.93 33.53 12.75 33.27 12.34C32.27 12.01 29.97 13.19 28.69 14.03C26.59 13.43 22.16 13.48 20.5 14.18C17.44 12.03 15.81 12.36 15.81 12.36C15.154 13.786 15.0577 15.4063 15.54 16.9C14.9504 17.4931 14.4897 18.2017 14.1869 18.9812C13.884 19.7607 13.7455 20.5944 13.78 21.43C13.7687 22.6321 13.9545 23.828 14.33 24.97ZM24.51 49.02C19.6624 49.02 14.9236 47.5825 10.893 44.8893C6.86234 42.1961 3.72083 38.3682 1.86572 33.8896C0.01062 29.411 -0.47476 24.4828 0.470964 19.7283C1.41669 14.9739 3.75104 10.6066 7.17882 7.17882C10.6066 3.75104 14.9739 1.41669 19.7283 0.470964C24.4828 -0.47476 29.411 0.01062 33.8896 1.86572C38.3682 3.72083 42.1961 6.86234 44.8893 10.893C47.5825 14.9236 49.02 19.6624 49.02 24.51C49.02 31.0105 46.4377 37.2447 41.8412 41.8412C37.2447 46.4377 31.0105 49.02 24.51 49.02V49.02Z" fill="#69C4CD"/>
</svg>
