<svg viewBox="14 0 218 85" version="1.1" xmlns="http://www.w3.org/2000/svg" xmlns:xlink="http://www.w3.org/1999/xlink">
    <defs></defs>
    <g id="Page-1" stroke="none" stroke-width="1" fill="none" fill-rule="evenodd">
        <g id="white_horizontal" fill="#FFFFFF">
            <g id="Logo" transform="translate(20.000000, 20.000000)">
                <path d="M70.3768227,18.4274751 C70.3768227,15.4423638 68.1223331,13.8349962 65.4503454,13.8349962 L59,13.8349962 L59,28.447429 L62.2982348,28.447429 L62.2982348,23.4792018 L65.095472,23.4792018 C68.5189563,23.4792018 70.3768227,21.1829624 70.3768227,18.4274751 Z M66.9324635,18.6362241 C66.9324635,19.8887183 66.1183423,20.7237145 65.0119724,20.7237145 L62.2773599,20.7237145 L62.2773599,16.5904835 L65.0119724,16.5904835 C66.1183423,16.5904835 66.9324635,17.3002302 66.9324635,18.6362241 Z M78.9772832,20.1183423 L78.9772832,16.9036071 L77.9752878,16.9036071 C76.8271681,16.9036071 75.7207982,17.4046048 75.1571757,18.3648503 L75.1571757,16.9036071 L72.046815,16.9036071 L72.046815,28.447429 L75.2615503,28.447429 L75.2615503,22.3102072 C75.2615503,20.7028396 76.200921,20.0974674 77.7874137,20.0974674 C78.2257866,20.0974674 78.9772832,20.1183423 78.9772832,20.1183423 Z M85.5111282,28.5935533 C88.8511128,28.5935533 91.2308519,26.5895625 91.2308519,22.6859555 C91.2308519,18.7614735 88.8511128,16.7574827 85.5111282,16.7574827 C82.1920184,16.7574827 79.8122794,18.7614735 79.8122794,22.6859555 C79.8122794,26.5895625 82.1920184,28.5935533 85.5111282,28.5935533 Z M85.5111282,19.3668457 C86.9097467,19.3668457 87.9534919,20.3062164 87.9534919,22.6859555 C87.9534919,25.0448196 86.9097467,25.9841903 85.5111282,25.9841903 C84.1542594,25.9841903 83.0896393,25.0448196 83.0896393,22.6859555 C83.0896393,20.3062164 84.1542594,19.3668457 85.5111282,19.3668457 Z M99.1633154,28.4056792 L99.1633154,25.7336915 C99.1633154,25.7336915 98.4326938,25.7963162 97.7646969,25.7963162 C97.075825,25.7963162 96.867076,25.6084421 96.867076,24.8986953 L96.867076,19.4920952 L99.3094398,19.4920952 L99.3094398,16.9036071 L96.867076,16.9036071 L96.867076,13.8349962 L93.6314658,13.8349962 L93.6314658,16.9036071 L91.9614735,16.9036071 L91.9614735,19.4920952 L93.6314658,19.4920952 L93.6314658,25.0656946 C93.6314658,27.2158097 93.9445894,28.5309286 96.637452,28.5309286 C98.0986953,28.5309286 99.1633154,28.4056792 99.1633154,28.4056792 Z M105.843285,28.5935533 C109.183269,28.5935533 111.563008,26.5895625 111.563008,22.6859555 C111.563008,18.7614735 109.183269,16.7574827 105.843285,16.7574827 C102.524175,16.7574827 100.144436,18.7614735 100.144436,22.6859555 C100.144436,26.5895625 102.524175,28.5935533 105.843285,28.5935533 Z M105.843285,19.3668457 C107.241903,19.3668457 108.285649,20.3062164 108.285649,22.6859555 C108.285649,25.0448196 107.241903,25.9841903 105.843285,25.9841903 C104.486416,25.9841903 103.421796,25.0448196 103.421796,22.6859555 C103.421796,20.3062164 104.486416,19.3668457 105.843285,19.3668457 Z M120.455718,24.0845741 C120.246969,25.4623177 119.307598,25.9841903 118.284728,25.9841903 C116.969609,25.9841903 115.925863,25.0448196 115.925863,22.6859555 C115.925863,20.3062164 116.948734,19.3668457 118.326477,19.3668457 C119.411972,19.3668457 120.246969,19.9095932 120.413968,21.3290867 L123.649578,21.3290867 C123.378204,18.2813507 121.207214,16.7574827 118.305602,16.7574827 C114.986493,16.7574827 112.606754,18.8240982 112.606754,22.7277053 C112.606754,26.6521873 115.049117,28.5935533 118.368227,28.5935533 C121.332464,28.5935533 123.336454,27.0696853 123.670453,24.0845741 L120.455718,24.0845741 Z M130.308672,28.5935533 C133.648657,28.5935533 136.028396,26.5895625 136.028396,22.6859555 C136.028396,18.7614735 133.648657,16.7574827 130.308672,16.7574827 C126.989563,16.7574827 124.609823,18.7614735 124.609823,22.6859555 C124.609823,26.5895625 126.989563,28.5935533 130.308672,28.5935533 Z M130.308672,19.3668457 C131.707291,19.3668457 132.751036,20.3062164 132.751036,22.6859555 C132.751036,25.0448196 131.707291,25.9841903 130.308672,25.9841903 C128.951804,25.9841903 127.887183,25.0448196 127.887183,22.6859555 C127.887183,20.3062164 128.951804,19.3668457 130.308672,19.3668457 Z M140.808749,28.447429 L140.808749,13 L137.594014,13 L137.594014,28.447429 L140.808749,28.447429 Z M158.05142,28.447429 L158.05142,25.5666922 L150.995702,25.5666922 L150.995702,13.8349962 L147.697467,13.8349962 L147.697467,28.447429 L158.05142,28.447429 Z M166.756255,24.0219493 C166.756255,25.0030698 166.088258,26.2555641 164.188642,26.2555641 C162.957022,26.2555641 162.623024,25.4831926 162.623024,24.96132 C162.623024,24.2306984 163.186646,23.7714505 163.959018,23.6253262 C164.752264,23.4583269 166.756255,23.2078281 166.756255,23.2078281 L166.756255,24.0219493 Z M159.700537,20.6819647 L162.810898,20.6819647 C162.810898,20.2227168 162.936147,19.2624712 164.835764,19.2624712 C166.380507,19.2624712 166.756255,19.8052187 166.756255,20.5984651 L166.756255,20.9950883 L162.957022,21.5378358 C161.892402,21.6839601 159.324789,22.3310821 159.324789,24.96132 C159.324789,27.2784344 161.099156,28.5935533 163.478895,28.5935533 C165.462011,28.5935533 166.338757,27.9255564 166.839754,27.4036838 L166.839754,28.447429 L170.242364,28.447429 C170.242364,28.447429 169.991865,27.570683 169.991865,26.7356869 L169.991865,20.5149655 C169.991865,18.8449731 169.073369,16.7574827 164.835764,16.7574827 C160.452034,16.7574827 159.742287,18.9910975 159.700537,20.6819647 Z M175.294091,28.447429 L175.294091,27.3201842 C175.878588,28.0508058 176.901458,28.5935533 178.174827,28.5935533 C181.306063,28.5935533 183.456178,26.5895625 183.456178,22.6859555 C183.456178,18.7614735 181.264313,16.7574827 178.362701,16.7574827 C177.089332,16.7574827 175.878588,17.3002302 175.294091,18.0308519 L175.294091,13 L172.079355,13 L172.079355,28.447429 L175.294091,28.447429 Z M177.736454,19.3668457 C179.135073,19.3668457 180.178818,20.3062164 180.178818,22.6859555 C180.178818,25.0448196 179.135073,25.9841903 177.736454,25.9841903 C176.170837,25.9841903 175.314965,25.2535687 175.314965,22.6859555 C175.314965,20.0974674 176.170837,19.3668457 177.736454,19.3668457 Z M191.493016,20.3270913 L194.645127,20.3270913 C194.645127,19.4294705 194.185879,16.7574827 189.676899,16.7574827 C186.921412,16.7574827 184.729547,17.9891021 184.729547,20.3688411 C184.729547,23.0617038 186.900537,23.6253262 189.384651,23.9593246 L190.010898,24.0428243 C190.908519,24.1680737 191.743515,24.3559478 191.743515,25.0656946 C191.743515,25.9006907 190.845894,26.2346892 189.823024,26.2346892 C188.716654,26.2346892 187.735533,25.9006907 187.735533,24.7943208 L184.499923,24.7943208 C184.499923,25.399693 184.771297,28.5935533 189.63515,28.5935533 C193.956255,28.5935533 195,26.485188 195,24.7108212 C195,20.0557176 187.944282,21.913584 187.944282,20.1392172 C187.944282,19.3459708 188.821028,19.095472 189.63515,19.095472 C190.74152,19.095472 191.493016,19.533845 191.493016,20.3270913 Z" id="Lettering"></path>
                <path d="M20.9458194,32.8376173 C21.4199634,33.1113024 21.804333,33.7802112 21.804333,34.3252328 L21.804333,43.7449194 C21.804333,44.2928216 21.4174705,44.5137044 20.9458194,44.2414885 L12.7942041,39.5367417 C12.3200601,39.263087 11.9356904,38.5941781 11.9356904,38.0491261 L11.9356904,28.6289144 C11.9356904,28.0809817 12.3225529,27.860099 12.7942041,28.1323453 L20.9458194,32.8376173 Z M33.5193536,24.5276575 C33.5193231,25.0754426 33.1322911,25.7428868 32.6604635,26.0152208 L24.5057991,30.722009 C24.0314777,30.9957824 23.6469643,30.7707969 23.6469643,30.2259221 L23.6469643,20.8087725 C23.6469643,20.2610179 24.0339964,19.5935736 24.5058544,19.3212092 L32.6610441,14.6138958 C33.135396,14.3400919 33.5199093,14.5650776 33.5198789,15.1099827 L33.5193536,24.5276575 Z M31.7279283,12.0245978 C32.2099676,12.30289 32.213538,12.7519876 31.7414756,13.0244688 L23.5827534,17.7337993 C23.1081961,18.0077206 22.3304317,18.0028913 21.8506317,17.7259357 L2.01213796,6.27453567 C1.53007089,5.99627146 1.52652677,5.54714736 1.99864849,5.2746063 L10.1583965,0.564239708 C10.6330136,0.290258177 11.4108037,0.295061443 11.8905761,0.572044911 L31.7279283,12.0245978 Z M10.0930591,36.9810219 C10.0930591,37.5299264 9.70624496,37.7516208 9.23465269,37.4794038 L1.08405511,32.7746381 C0.609970313,32.5009823 0.225648649,31.8253341 0.225648649,31.2713818 L0.225648649,8.36687905 C0.225648649,7.81030926 0.618607612,7.58593937 1.09828471,7.86281285 L20.931697,19.3108182 C21.4136405,19.5889999 21.804333,20.2615296 21.804333,20.8065216 L21.804333,30.2256968 C21.804333,30.7735693 21.414678,30.992823 20.9431751,30.7207008 L10.9542171,24.9556943 C10.4786127,24.6812049 10.0930591,24.908396 10.0930591,25.4525669 L10.0930591,36.9810219 Z M35.3538432,14.0531061 C35.3538933,13.5041773 35.7409168,12.8358057 36.2127148,12.5634713 L44.3668677,7.8566751 C44.8411593,7.58290124 45.2256486,7.81478142 45.2256486,8.36874759 L45.2256486,31.2738219 C45.2256486,31.8304056 44.8326897,32.5084249 44.3530126,32.7852984 L24.5196003,44.2333037 C24.0376567,44.5114854 23.6469643,44.2899528 23.6469643,43.7449308 L23.6469643,34.3252362 C23.6469643,33.7773336 24.0364351,33.1083474 24.5077151,32.8362994 L34.4919509,27.0728649 C34.9673305,26.7984504 35.3527427,26.126265 35.3527923,25.5820701 L35.3538432,14.0531061 Z M25.4197986,6.26301118 C24.9452703,5.98905849 24.9477411,5.54352733 25.4197454,5.27110547 L33.5774625,0.562798906 C34.0519614,0.288937198 34.8237699,0.290401429 35.295773,0.562853033 L43.4534708,5.27167354 C43.9279686,5.54556514 43.9254979,5.99109661 43.4535241,6.26357925 L35.2963322,10.9729361 C34.8218638,11.2468589 34.0500551,11.2453943 33.5780217,10.9728819 L25.4197986,6.26301118 Z" id="Shape"></path>
            </g>
        </g>
    </g>
</svg>
