<svg width="50" height="50" viewBox="0 0 50 50" fill="none" xmlns="http://www.w3.org/2000/svg">
<path d="M24.61 8.12092e-06C19.7395 0.00396306 14.9795 1.45185 10.9318 4.16063C6.88402 6.86941 3.73024 10.7175 1.86912 15.2184C0.00800276 19.7193 -0.476901 24.6709 0.475711 29.4473C1.42832 34.2238 3.77568 38.6105 7.22104 42.0531C10.6664 45.4957 15.0551 47.8395 19.8323 48.7882C24.6095 49.7369 29.5607 49.248 34.0601 47.3832C38.5595 45.5185 42.405 42.3616 45.1105 38.3116C47.816 34.2617 49.26 29.5005 49.26 24.63C49.26 21.3939 48.6223 18.1894 47.3833 15.1999C46.1442 12.2103 44.3282 9.49426 42.039 7.20689C39.7498 4.91952 37.0322 3.10571 34.0416 1.86911C31.0511 0.632515 27.8462 -0.00261968 24.61 8.12092e-06V8.12092e-06ZM37.01 19.66C37.01 19.93 37.01 20.2 37.01 20.47C37.01 28.67 30.77 38.12 19.35 38.12C15.978 38.1213 12.6768 37.1528 9.84001 35.33C10.331 35.3902 10.8253 35.4202 11.32 35.42C14.1159 35.4249 16.832 34.4879 19.03 32.76C17.7396 32.7303 16.4905 32.2993 15.4564 31.5269C14.4223 30.7544 13.6546 29.679 13.26 28.45C13.6451 28.5272 14.0373 28.564 14.43 28.56C14.9802 28.5617 15.5282 28.4911 16.06 28.35C14.6507 28.07 13.3821 27.3101 12.4704 26.1996C11.5587 25.0891 11.0602 23.6968 11.06 22.26C11.0557 22.2335 11.0557 22.2065 11.06 22.18C11.9192 22.6649 12.8838 22.9326 13.87 22.96C12.5566 22.0808 11.6272 20.7345 11.2706 19.1947C10.9139 17.6549 11.1569 16.0371 11.95 14.67C13.509 16.5915 15.4557 18.1626 17.663 19.2809C19.8703 20.3992 22.2885 21.0395 24.76 21.16C24.6509 20.6946 24.5972 20.218 24.6 19.74C24.5986 18.4953 24.9719 17.279 25.6713 16.2493C26.3707 15.2197 27.3639 14.4244 28.5215 13.967C29.6791 13.5095 30.9476 13.4111 32.1619 13.6845C33.3763 13.958 34.4802 14.5906 35.33 15.5C36.7162 15.2234 38.0452 14.7128 39.26 13.99C38.7997 15.4285 37.8286 16.6487 36.53 17.42C37.7632 17.2663 38.9664 16.9292 40.1 16.42C39.2714 17.6755 38.2249 18.7728 37.01 19.66V19.66Z" fill="#69C4CD"/>
</svg>
