<svg width="132" height="105" viewBox="0 0 132 105" fill="none" xmlns="http://www.w3.org/2000/svg">
<path d="M27.6409 1.01097C27.7714 1.01671 27.899 0.972205 27.9977 0.886627C28.0963 0.801049 28.1583 0.680918 28.171 0.550975C28.1764 0.484997 28.1684 0.418596 28.1475 0.355785C28.1266 0.292974 28.0931 0.235056 28.0492 0.185524C28.0053 0.135991 27.9518 0.0958734 27.8919 0.0675922C27.8321 0.039311 27.7671 0.0234502 27.701 0.0209728C22.841 -0.299027 18.701 3.08098 18.361 7.55098C18.361 7.68098 18.361 7.80097 18.361 7.93097C17.451 7.29154 16.3811 6.91762 15.271 6.85097C13.978 6.73315 12.6842 7.06744 11.6101 7.79686C10.536 8.52628 9.7482 9.60566 9.38095 10.851C9.00458 10.7765 8.62379 10.7264 8.24095 10.701C3.97095 10.431 0.240952 13.401 0.000952415 17.351C-0.00310748 17.4167 0.00583896 17.4825 0.0272815 17.5447C0.048724 17.6069 0.082239 17.6643 0.125905 17.7136C0.16957 17.7628 0.222528 17.8029 0.281739 17.8317C0.34095 17.8604 0.40525 17.8772 0.470952 17.881C0.596912 17.8814 0.718383 17.8342 0.811082 17.7489C0.90378 17.6637 0.960876 17.5465 0.970952 17.421C1.20095 14.021 4.42095 11.421 8.15095 11.701C8.64431 11.7329 9.13333 11.8133 9.61095 11.941C9.67953 11.9615 9.75177 11.9668 9.82261 11.9564C9.89344 11.9461 9.96114 11.9203 10.021 11.881C10.08 11.8412 10.1301 11.7895 10.168 11.7293C10.2059 11.669 10.2307 11.6014 10.241 11.531C10.4531 10.4107 11.079 9.41122 11.9942 8.73125C12.9095 8.05129 14.0471 7.74061 15.181 7.86097C16.4637 7.93638 17.6661 8.51064 18.531 9.46097C18.6021 9.54151 18.6972 9.597 18.8024 9.61921C18.9075 9.64143 19.017 9.62919 19.1146 9.5843C19.2122 9.53942 19.2928 9.46428 19.3444 9.37002C19.396 9.27576 19.4158 9.1674 19.401 9.06098C19.3313 8.58769 19.3112 8.10843 19.341 7.63098C19.621 3.69098 23.3309 0.720974 27.6409 1.01097Z" transform="translate(16.1091 55.649)" fill="#69C4CD"/>
<path d="M12.4917 6.74705L17.4917 11.7471C17.8642 12.1165 18.367 12.3248 18.8917 12.327C19.1528 12.328 19.4113 12.2762 19.6519 12.1748C19.8924 12.0734 20.1101 11.9245 20.2917 11.7371C20.6582 11.3632 20.8634 10.8606 20.8634 10.337C20.8634 9.81354 20.6582 9.3109 20.2917 8.93705L11.9917 0.55705C11.8355 0.395025 11.6485 0.265834 11.4417 0.177052C11.3864 0.14081 11.3256 0.11379 11.2617 0.0970506L10.9117 0.00704661C10.8053 -0.00234887 10.6982 -0.00234887 10.5917 0.00704661H10.3817H10.2517C9.99512 0.00394129 9.74055 0.0528502 9.50338 0.150815C9.2662 0.24878 9.05132 0.393769 8.87171 0.577046L0.571712 8.95705C0.205259 9.33091 0 9.83355 0 10.3571C0 10.8806 0.205259 11.3832 0.571712 11.757C0.945063 12.1326 1.45214 12.3448 1.98171 12.3471C2.24276 12.348 2.50131 12.2962 2.74187 12.1948C2.98243 12.0934 3.20006 11.9445 3.38171 11.757L8.46171 6.52705V34.6071C8.44788 34.6932 8.44788 34.7809 8.46171 34.867C8.57504 35.3388 8.83977 35.7604 9.2154 36.0674C9.59103 36.3744 10.0569 36.5499 10.5417 36.5671C10.822 36.5711 11.0997 36.5122 11.3542 36.3945C11.6086 36.2768 11.8333 36.1033 12.0117 35.8871C12.1729 35.6986 12.2927 35.4783 12.3633 35.2406C12.434 35.0029 12.4539 34.753 12.4217 34.507L12.4917 6.74705ZM11.4917 4.33705V34.5671C11.5145 34.6931 11.5085 34.8227 11.4741 34.9461C11.4398 35.0695 11.378 35.1835 11.2934 35.2797C11.2087 35.3759 11.1035 35.4517 10.9854 35.5014C10.8674 35.5512 10.7396 35.5736 10.6117 35.5671C10.3408 35.5474 10.084 35.4387 9.88143 35.2578C9.67882 35.0769 9.54179 34.834 9.49171 34.5671V4.04705L2.70171 11.047C2.61786 11.1677 2.50845 11.2684 2.38127 11.3419C2.25409 11.4155 2.11226 11.4601 1.96588 11.4727C1.81949 11.4852 1.67214 11.4653 1.53431 11.4144C1.39648 11.3636 1.27155 11.2829 1.16841 11.1783C1.06527 11.0737 0.986456 10.9476 0.937569 10.809C0.888682 10.6705 0.870927 10.5229 0.885563 10.3767C0.900199 10.2305 0.946868 10.0893 1.02225 9.96322C1.09763 9.83711 1.19988 9.72916 1.32171 9.64705L9.61171 1.26705C9.69974 1.17963 9.80436 1.11071 9.91943 1.06434C10.0345 1.01797 10.1577 0.995095 10.2817 0.997052H10.4717C10.5157 0.977173 10.5634 0.966885 10.6117 0.966885C10.66 0.966885 10.7077 0.977173 10.7517 0.997052H10.9417H11.0417C11.1366 1.04422 11.2242 1.10484 11.3017 1.17705L19.6017 9.55705C19.7849 9.74398 19.8876 9.99529 19.8876 10.257C19.8876 10.5188 19.7849 10.7701 19.6017 10.9571C19.4157 11.1343 19.1687 11.2332 18.9117 11.2332C18.6548 11.2332 18.4077 11.1343 18.2217 10.9571L11.4917 4.33705Z" transform="translate(36.5784 67.533)" fill="#69C4CD"/>
<path d="M130.41 35.91L116.93 10.65C116.804 10.4186 116.592 10.2461 116.34 10.17L85.7097 0.840016C83.2393 0.100004 80.5765 0.365716 78.301 1.57932C76.0255 2.79292 74.3214 4.85617 73.5597 7.32002L73.1897 8.54002L64.9397 0.290017C64.8463 0.197335 64.7355 0.12401 64.6136 0.0742455C64.4918 0.0244809 64.3613 -0.000744179 64.2297 1.67143e-05H32.2297C29.65 0.00266397 27.1766 1.02864 25.3525 2.85279C23.5283 4.67695 22.5024 7.15027 22.4997 9.73002V50.09C20.6624 50.5568 18.9982 51.5422 17.7056 52.9288C16.413 54.3154 15.5466 56.0446 15.2097 57.91C13.0606 57.5986 10.8675 57.8431 8.83971 58.62C6.36069 59.5453 4.20516 61.1732 2.6369 63.3045C1.06864 65.4358 0.15567 67.978 0.00970943 70.62C-0.0588663 72.4205 0.236366 74.2163 0.877751 75.9001C1.51914 77.5838 2.4935 79.1209 3.74257 80.4195C4.99164 81.718 6.48977 82.7513 8.14735 83.4576C9.80493 84.1639 11.5879 84.5286 13.3897 84.53H41.0597C41.3249 84.53 41.5793 84.4247 41.7668 84.2371C41.9544 84.0496 42.0597 83.7952 42.0597 83.53C42.0597 83.2648 41.9544 83.0105 41.7668 82.8229C41.5793 82.6354 41.3249 82.53 41.0597 82.53H13.3897C11.8557 82.5285 10.3378 82.2174 8.92681 81.6154C7.51587 81.0134 6.24095 80.1328 5.1784 79.0263C4.11585 77.9199 3.28753 76.6104 2.74306 75.1763C2.19858 73.7421 1.94916 72.2128 2.00971 70.68C2.13466 68.4287 2.91359 66.2627 4.25107 64.4474C5.58855 62.6321 7.4265 61.2464 9.53971 60.46C11.5465 59.708 13.7292 59.5586 15.8197 60.03C15.9597 60.0597 16.1045 60.059 16.2443 60.028C16.384 59.9969 16.5154 59.9362 16.6297 59.85C16.7461 59.7631 16.8422 59.6519 16.9113 59.5241C16.9804 59.3963 17.0208 59.255 17.0297 59.11C17.1273 57.58 17.6719 56.1123 18.5959 54.889C19.52 53.6656 20.7829 52.7405 22.2279 52.2283C23.6729 51.7161 25.2365 51.6394 26.7247 52.0077C28.213 52.3759 29.5603 53.173 30.5997 54.3C30.7484 54.4585 30.9447 54.5643 31.1589 54.6013C31.373 54.6383 31.5934 54.6045 31.7867 54.5051C31.9799 54.4056 32.1355 54.2459 32.2299 54.0501C32.3243 53.8543 32.3523 53.6331 32.3097 53.42C31.9795 51.7226 31.9795 49.9774 32.3097 48.28C32.9462 45.1843 34.6755 42.4211 37.1815 40.4954C39.6875 38.5696 42.8028 37.6101 45.958 37.7921C49.1133 37.9742 52.0976 39.2856 54.3655 41.4867C56.6334 43.6879 58.0335 46.6317 58.3097 49.78C58.3275 49.9807 58.4054 50.1714 58.5334 50.327C58.6614 50.4827 58.8334 50.596 59.0269 50.6522C59.2204 50.7085 59.4263 50.7049 59.6178 50.6421C59.8092 50.5792 59.9772 50.46 60.0997 50.3C61.5872 48.3013 63.6678 46.8233 66.0449 46.0767C68.4219 45.3301 70.9739 45.353 73.3371 46.1422C75.7003 46.9314 77.754 48.4466 79.2054 50.4717C80.6568 52.4969 81.4317 54.9285 81.4197 57.42C81.4185 57.9183 81.3851 58.416 81.3197 58.91V58.91C79.6846 58.7524 78.0396 59.0859 76.595 59.8679C75.1504 60.6498 73.9718 61.8448 73.2097 63.3C72.9637 63.8132 72.7791 64.3536 72.6597 64.91C72.645 64.9744 72.6431 65.041 72.6543 65.1061C72.6654 65.1712 72.6893 65.2334 72.7247 65.2892C72.76 65.345 72.806 65.3932 72.8601 65.4311C72.9142 65.469 72.9752 65.4958 73.0397 65.51H73.1497C73.2629 65.512 73.3731 65.474 73.4609 65.4026C73.5487 65.3313 73.6085 65.2312 73.6297 65.12C73.7402 64.6571 73.9011 64.2078 74.1097 63.78C75.5597 60.78 79.1097 59.37 82.6397 60.15C85.3258 60.8421 87.6666 62.4914 89.2222 64.788C90.7778 67.0845 91.4411 69.8701 91.0874 72.6213C90.7336 75.3725 89.3873 77.8997 87.3013 79.728C85.2154 81.5564 82.5335 82.5599 79.7597 82.55H50.0597C49.7945 82.55 49.5401 82.6554 49.3526 82.8429C49.1651 83.0304 49.0597 83.2848 49.0597 83.55C49.0597 83.8152 49.1651 84.0696 49.3526 84.2571C49.5401 84.4447 49.7945 84.55 50.0597 84.55H79.7597C80.4025 84.5464 81.0442 84.4962 81.6797 84.4V84.4L103.82 91.01C106.29 91.7555 108.955 91.4923 111.232 90.2779C113.509 89.0636 115.213 86.9969 115.97 84.53L130.41 36.91L130.48 36.67C130.558 36.4174 130.533 36.1441 130.41 35.91ZM128.01 35.66L118.61 32.8C116.451 32.1375 114.643 30.6472 113.581 28.6552C112.518 26.6632 112.288 24.3315 112.94 22.17L115.82 12.79L128.01 35.66ZM72.5297 10.66L69.6097 20.24C68.0883 19.5802 66.7925 18.4907 65.8813 17.1052C64.97 15.7197 64.4829 14.0983 64.4797 12.44V2.66002L72.5297 10.66ZM60.0197 47.44C59.2512 44.0459 57.3383 41.0195 54.6022 38.869C51.8662 36.7185 48.4735 35.5748 44.9939 35.6299C41.5143 35.685 38.1596 36.9356 35.493 39.1717C32.8264 41.4078 31.0104 44.4933 30.3497 47.91C30.1476 49.018 30.0638 50.1443 30.0997 51.27C29.8997 51.15 29.6797 51.05 29.4797 50.94V14.65C29.4827 13.5899 29.736 12.5456 30.2191 11.6019C30.7022 10.6583 31.4014 9.8422 32.2597 9.22002C33.3856 8.39707 34.7451 7.95558 36.1397 7.96002C36.2715 7.95746 36.3972 7.90396 36.4904 7.81074C36.5836 7.71752 36.6371 7.59182 36.6397 7.46002C36.6397 7.32741 36.587 7.20023 36.4933 7.10646C36.3995 7.01269 36.2723 6.96002 36.1397 6.96002C34.5334 6.95553 32.9675 7.46348 31.6697 8.41002C30.684 9.1253 29.8813 10.0634 29.3269 11.1477C28.7726 12.2321 28.4823 13.4322 28.4797 14.65V50.49C27.3384 50.0293 26.1204 49.7885 24.8897 49.78H24.4797V9.73002C24.4824 7.68071 25.2976 5.71609 26.7467 4.267C28.1958 2.81792 30.1604 2.00266 32.2097 2.00002H63.4797V12.49C63.4823 14.363 64.038 16.1935 65.0769 17.7519C66.1158 19.3103 67.5918 20.5272 69.3197 21.25L61.8197 46.01C61.182 46.4372 60.5801 46.9155 60.0197 47.44V47.44ZM78.9397 47.26L80.0497 45.12L82.9897 46.01L82.3197 52.01C81.5431 50.2047 80.3909 48.5854 78.9397 47.26V47.26ZM114 83.91C113.395 85.8672 112.042 87.5063 110.234 88.4707C108.427 89.4352 106.312 89.647 104.35 89.06L85.3497 83.27C86.8929 82.5625 88.2877 81.5682 89.4597 80.34L101.79 84.09C102.51 84.3063 103.258 84.4175 104.01 84.42C105.658 84.4164 107.261 83.884 108.584 82.9012C109.907 81.9183 110.88 80.5369 111.36 78.96L116.54 61.96C116.56 61.8977 116.567 61.8319 116.561 61.7667C116.555 61.7015 116.536 61.6381 116.506 61.5803C116.475 61.5226 116.433 61.4715 116.382 61.4302C116.331 61.3889 116.273 61.3583 116.21 61.34C116.084 61.3025 115.948 61.3161 115.832 61.3778C115.716 61.4396 115.629 61.5446 115.59 61.67L110.4 78.67C109.889 80.3633 108.727 81.7843 107.168 82.6207C105.61 83.457 103.783 83.6402 102.09 83.13L90.1697 79.55C91.5641 77.8276 92.5089 75.7858 92.9191 73.608C93.3293 71.4301 93.1922 69.1845 92.52 67.0728C91.8478 64.9611 90.6616 63.0494 89.068 61.5095C87.4744 59.9695 85.5232 58.8495 83.3897 58.25C83.3897 57.96 83.3897 57.69 83.3897 57.42C83.3909 55.9941 83.1682 54.5768 82.7297 53.22C82.8183 53.223 82.9056 53.1986 82.9797 53.15C83.0421 53.1082 83.0948 53.0535 83.1345 52.9897C83.1741 52.926 83.1998 52.8545 83.2097 52.78L83.9997 45.71C84.0123 45.5935 83.9844 45.4762 83.9206 45.3778C83.8569 45.2795 83.7612 45.2061 83.6497 45.17L79.9197 44.04C79.8077 44.0039 79.6865 44.0093 79.5782 44.0552C79.4699 44.1011 79.3817 44.1845 79.3297 44.29L78.1297 46.59C75.761 44.7037 72.8372 43.6494 69.8097 43.59L78.8097 14.05C79.1204 13.037 79.6666 12.112 80.4036 11.3507C81.1406 10.5894 82.0473 10.0135 83.0497 9.67002C84.3629 9.20896 85.7894 9.18092 87.1197 9.59002C87.2523 9.6298 87.3953 9.61527 87.5172 9.54964C87.6391 9.484 87.7299 9.37263 87.7697 9.24002C87.8095 9.10741 87.795 8.96443 87.7293 8.84253C87.6637 8.72063 87.5523 8.6298 87.4197 8.59002C85.8827 8.12394 84.2377 8.15544 82.7197 8.68002C81.5743 9.0759 80.5373 9.73423 79.6917 10.6024C78.8461 11.4706 78.2153 12.5245 77.8497 13.68L68.8197 43.63C67.2773 43.7071 65.7591 44.0453 64.3297 44.63L74.1697 12.31L74.3997 12.53C74.5097 12.2 74.6397 11.88 74.7797 11.53C74.8861 11.1135 74.9563 10.6886 74.9897 10.26L74.8197 10.15L75.4697 7.91002C75.9626 6.32792 76.9465 4.9439 78.2788 3.95859C79.6111 2.97327 81.2226 2.43788 82.8797 2.43002C83.6393 2.4288 84.3947 2.54345 85.1197 2.77002L115.04 11.91L111.98 21.91C111.253 24.3248 111.512 26.929 112.7 29.1533C113.888 31.3776 115.909 33.0411 118.32 33.78L128.32 36.84L114 83.91Z" transform="translate(1.01039)" fill="#69C4CD"/>
<path d="M1.52116 0.0211564C1.39385 -0.0167006 1.2568 -0.00339976 1.13915 0.0582277C1.02149 0.119855 0.932518 0.224949 0.891152 0.351158L0.0211564 3.22116C-0.0167006 3.34846 -0.00339976 3.48552 0.0582277 3.60317C0.119855 3.72082 0.224949 3.80979 0.351158 3.85116H0.501152C0.608939 3.84958 0.713459 3.81389 0.799698 3.74921C0.885937 3.68453 0.949462 3.59419 0.981156 3.49116L1.85116 0.621155C1.88281 0.497931 1.8663 0.367275 1.80499 0.255798C1.74367 0.144322 1.64217 0.0604124 1.52116 0.0211564Z" transform="translate(119.459 48.8889)" fill="#69C4CD"/>
<path d="M2.39082 0.0177206C2.26357 -0.0167276 2.12792 -0.000563301 2.01233 0.0628256C1.89673 0.126215 1.81018 0.231903 1.77082 0.357721L0.0208178 6.09772C-0.0167168 6.22369 -0.00313151 6.35938 0.0586291 6.47542C0.12039 6.59145 0.225359 6.6785 0.35082 6.71772C0.400349 6.72743 0.451292 6.72743 0.500821 6.71772C0.607363 6.71683 0.71095 6.68259 0.79704 6.61982C0.88313 6.55705 0.947394 6.46889 0.980817 6.36772L2.70082 0.647722C2.73967 0.522989 2.72918 0.3881 2.6715 0.270879C2.61382 0.153658 2.51335 0.0630425 2.39082 0.0177206Z" transform="translate(117.129 53.6623)" fill="#69C4CD"/>
<path d="M0.336525 3.8703L1.33653 4.1603C1.38274 4.16947 1.43031 4.16947 1.47652 4.1603C1.58421 4.16431 1.69011 4.13197 1.77718 4.06848C1.86424 4.00499 1.92742 3.91405 1.95653 3.8103L2.83653 0.940303C2.88167 0.81766 2.88167 0.682947 2.83653 0.560303C2.80733 0.500637 2.76529 0.448174 2.71342 0.406679C2.66156 0.365184 2.60114 0.335686 2.53652 0.320304L1.53652 0.0203034C1.4079 -0.0171154 1.26973 -0.00242931 1.15185 0.0611893C1.03397 0.124808 0.945843 0.232251 0.906525 0.360304L0.0165255 3.2703C-0.0156247 3.39224 -0.000518072 3.52181 0.0588229 3.63308C0.118164 3.74434 0.217356 3.82908 0.336525 3.8703Z" transform="translate(90.8136 5.63971)" fill="#69C4CD"/>
<path d="M2.5275 0.310819L1.5275 0.0208187C1.40153 -0.0167159 1.26584 -0.00313348 1.1498 0.0586271C1.03377 0.120388 0.946721 0.225358 0.907502 0.350819L0.0375068 3.22082C-0.0125023 3.34255 -0.0125023 3.47909 0.0375068 3.60082C0.102042 3.7193 0.209327 3.80871 0.337502 3.85082L1.3375 4.14082H1.4775C1.58442 4.14147 1.68873 4.10782 1.77512 4.04483C1.86151 3.98184 1.92543 3.89281 1.9575 3.79082L2.8275 0.920819C2.87707 0.795544 2.87707 0.656093 2.8275 0.530818C2.75609 0.424864 2.65002 0.347079 2.5275 0.310819V0.310819Z" transform="translate(91.2026 11.0292)" fill="#69C4CD"/>
<path d="M0.351395 3.87116L1.35139 4.16116H1.49139C1.59831 4.1618 1.70261 4.12816 1.789 4.06517C1.87539 4.00218 1.93932 3.91315 1.97139 3.81116L2.84139 0.941157C2.8914 0.819426 2.8914 0.682889 2.84139 0.561158C2.77686 0.442678 2.66956 0.35327 2.54139 0.311158L1.54139 0.021157C1.41408 -0.0167 1.27703 -0.00340107 1.15938 0.0582264C1.04173 0.119854 0.952759 0.224948 0.911392 0.351157L0.0413895 3.22116C0.0140974 3.28254 0 3.34898 0 3.41616C0 3.48334 0.0140974 3.54977 0.0413895 3.61116C0.0720938 3.6737 0.11553 3.72914 0.168915 3.77392C0.222299 3.81869 0.284459 3.85181 0.351395 3.87116Z" transform="translate(87.8887 15.2089)" fill="#69C4CD"/>
<path d="M2.53386 0.310819L1.53386 0.0208184C1.40789 -0.0167162 1.27219 -0.00313282 1.15616 0.0586278C1.04012 0.120388 0.953077 0.22536 0.913858 0.35082L0.0338605 3.22082C-0.0112868 3.34346 -0.0112868 3.47818 0.0338605 3.60082C0.0630528 3.66049 0.105092 3.71295 0.156961 3.75444C0.20883 3.79594 0.269245 3.82544 0.333864 3.84082L1.33386 4.14082H1.47386C1.58165 4.13924 1.68616 4.10355 1.7724 4.03887C1.85864 3.97419 1.92216 3.88385 1.95386 3.78082L2.82386 0.91082C2.85773 0.792649 2.84688 0.666142 2.79339 0.555463C2.73989 0.444784 2.6475 0.357691 2.53386 0.310819Z" transform="translate(88.2962 20.5992)" fill="#69C4CD"/>
<path d="M24.5 0H0.5C0.367392 0 0.240214 0.052678 0.146446 0.146446C0.052678 0.240214 0 0.367392 0 0.5C0 0.632608 0.052678 0.759786 0.146446 0.853554C0.240214 0.947322 0.367392 1 0.5 1H24.5C24.6326 1 24.7598 0.947322 24.8536 0.853554C24.9473 0.759786 25 0.632608 25 0.5C25 0.367392 24.9473 0.240214 24.8536 0.146446C24.7598 0.052678 24.6326 0 24.5 0Z" transform="translate(34.4901 14)" fill="#69C4CD"/>
<path d="M13.5 0H0.5C0.367392 0 0.240214 0.052678 0.146446 0.146446C0.052678 0.240214 0 0.367392 0 0.5C0 0.632608 0.052678 0.759786 0.146446 0.853554C0.240214 0.947322 0.367392 1 0.5 1H13.5C13.6326 1 13.7598 0.947322 13.8536 0.853554C13.9473 0.759786 14 0.632608 14 0.5C14 0.367392 13.9473 0.240214 13.8536 0.146446C13.7598 0.052678 13.6326 0 13.5 0Z" transform="translate(34.4901 17)" fill="#69C4CD"/>
<path d="M2.5 0H0.5C0.367392 0 0.240214 0.052678 0.146446 0.146446C0.052678 0.240214 0 0.367392 0 0.5C0 0.632608 0.052678 0.759786 0.146446 0.853554C0.240214 0.947322 0.367392 1 0.5 1H2.5C2.63261 1 2.75979 0.947322 2.85355 0.853554C2.94732 0.759786 3 0.632608 3 0.5C3 0.367392 2.94732 0.240214 2.85355 0.146446C2.75979 0.052678 2.63261 0 2.5 0Z" transform="translate(34.4901 20)" fill="#69C4CD"/>
<path d="M2.5 0H0.5C0.367392 0 0.240214 0.052678 0.146446 0.146446C0.052678 0.240214 0 0.367392 0 0.5C0 0.632608 0.052678 0.759786 0.146446 0.853554C0.240214 0.947322 0.367392 1 0.5 1H2.5C2.63261 1 2.75979 0.947322 2.85355 0.853554C2.94732 0.759786 3 0.632608 3 0.5C3 0.367392 2.94732 0.240214 2.85355 0.146446C2.75979 0.052678 2.63261 0 2.5 0Z" transform="translate(38.4901 20)" fill="#69C4CD"/>
<path d="M2.5 0H0.5C0.367392 0 0.240214 0.052678 0.146446 0.146446C0.052678 0.240214 0 0.367392 0 0.5C0 0.632608 0.052678 0.759786 0.146446 0.853554C0.240214 0.947322 0.367392 1 0.5 1H2.5C2.63261 1 2.75979 0.947322 2.85355 0.853554C2.94732 0.759786 3 0.632608 3 0.5C3 0.367392 2.94732 0.240214 2.85355 0.146446C2.75979 0.052678 2.63261 0 2.5 0Z" transform="translate(42.4901 20)" fill="#69C4CD"/>
<path d="M0.327508 3.85082L1.32751 4.14082H1.46751C1.57569 4.14082 1.68096 4.10573 1.76751 4.04082C1.85406 3.97591 1.91722 3.88467 1.94751 3.78082L2.82751 0.930818C2.87752 0.809088 2.87752 0.67255 2.82751 0.550819C2.75961 0.437358 2.6531 0.352157 2.5275 0.310819L1.5275 0.0208184C1.40153 -0.0167162 1.26585 -0.00313282 1.14981 0.0586278C1.03378 0.120388 0.946729 0.225358 0.90751 0.350818L0.0375068 3.22082C-0.0125023 3.34255 -0.0125023 3.47909 0.0375068 3.60082C0.0996436 3.71738 0.203066 3.80654 0.327508 3.85082V3.85082Z" transform="translate(85.0026 24.7992)" fill="#69C4CD"/>
<path d="M2.53322 0.319998L1.53322 0.0199989C1.47018 0.00161381 1.40415 -0.00417424 1.33887 0.00296244C1.2736 0.0100991 1.21037 0.0300186 1.1528 0.0615905C1.09523 0.0931624 1.04443 0.135768 1.00333 0.186968C0.962218 0.238169 0.9316 0.296965 0.913215 0.359999L0.0332173 3.23C-0.0110724 3.35279 -0.0110724 3.4872 0.0332173 3.61C0.0639991 3.66851 0.106533 3.72002 0.158156 3.76132C0.20978 3.80262 0.269376 3.83281 0.333213 3.85L1.33321 4.14C1.38274 4.1497 1.43369 4.1497 1.48321 4.14C1.59013 4.14065 1.69444 4.10701 1.78083 4.04401C1.86722 3.98102 1.93114 3.89199 1.96322 3.79L2.83321 0.919997C2.87075 0.794022 2.85717 0.658335 2.79541 0.5423C2.73365 0.426264 2.62868 0.339217 2.50322 0.299998L2.53322 0.319998Z" transform="translate(85.3769 30.16)" fill="#69C4CD"/>
<path d="M1.51386 4.16335C1.62078 4.16399 1.72508 4.13035 1.81147 4.06736C1.89786 4.00436 1.96179 3.91534 1.99386 3.81334L2.82386 0.943345C2.85243 0.882307 2.86723 0.815738 2.86723 0.748345C2.86723 0.680952 2.85243 0.614383 2.82386 0.553345C2.79629 0.494381 2.75597 0.442271 2.70582 0.400769C2.65567 0.359267 2.59694 0.329406 2.53386 0.313344L1.53386 0.0233467C1.47151 0.00337862 1.40579 -0.00389319 1.34058 0.00196531C1.27537 0.00782382 1.21199 0.0266916 1.15419 0.0574539C1.0964 0.0882162 1.04535 0.130252 1.00408 0.181073C0.962797 0.231894 0.932117 0.29047 0.913858 0.353345L0.0338605 3.22334C-0.0112868 3.34599 -0.0112868 3.4807 0.0338605 3.60334C0.0646423 3.66185 0.107176 3.71337 0.158799 3.75467C0.210423 3.79597 0.270027 3.82616 0.333864 3.84335L1.33386 4.13335C1.39065 4.15744 1.45234 4.16772 1.51386 4.16335V4.16335Z" transform="translate(82.0062 34.3567)" fill="#69C4CD"/>
<path d="M2.48278 0.31082L1.48278 0.020819C1.3568 -0.0167156 1.22112 -0.00313414 1.10508 0.0586265C0.989048 0.120387 0.902 0.225356 0.862781 0.350817L0.0227769 3.18082C0.00287002 3.24449 -0.00409084 3.31151 0.00229964 3.37791C0.00869011 3.44432 0.0283013 3.50878 0.0599855 3.56748C0.0916697 3.62619 0.134785 3.67797 0.186786 3.71976C0.238788 3.76155 0.298629 3.79251 0.362781 3.81082L1.31278 4.18082H1.46278C1.54338 4.18131 1.62269 4.16062 1.69278 4.12082C1.81061 4.06029 1.90027 3.95629 1.94278 3.83082L2.81278 0.960818C2.83455 0.896504 2.84325 0.828491 2.83839 0.760767C2.83353 0.693043 2.81519 0.626974 2.78445 0.566431C2.75371 0.505889 2.7112 0.452091 2.6594 0.408198C2.60759 0.364304 2.54754 0.3312 2.48278 0.31082V0.31082Z" transform="translate(82.5173 39.7292)" fill="#69C4CD"/>
<path opacity="0.28" d="M49.0701 46.8271H77.7001C77.8801 46.8271 78.0601 46.8271 78.2301 46.8271C78.4001 46.8271 78.5901 46.8271 78.7701 46.8271C81.8377 46.8309 84.7976 45.6965 87.077 43.6435C89.3564 41.5906 90.7932 38.765 91.1093 35.7137C91.4254 32.6625 90.5983 29.6024 88.7881 27.1258C86.9779 24.6492 84.3133 22.9322 81.3101 22.3071C81.3823 21.7802 81.419 21.249 81.4201 20.7171C81.4215 18.0281 80.5773 15.4068 79.007 13.2239C77.4368 11.041 75.2198 9.4072 72.6699 8.55355C70.12 7.6999 67.3663 7.66965 64.7983 8.46709C62.2302 9.26452 59.978 10.8493 58.3601 12.9971C58.0796 9.59379 56.5787 6.40646 54.1339 4.02233C51.6891 1.6382 48.465 0.217893 45.0558 0.0230759C41.6465 -0.171741 38.2816 0.872057 35.5811 2.96217C32.8806 5.05228 31.0264 8.04788 30.3601 11.3971C30.0044 13.2199 30.0044 15.0943 30.3601 16.9171C29.1874 15.647 27.6677 14.749 25.9895 14.3345C24.3112 13.92 22.5482 14.0073 20.919 14.5854C19.2899 15.1636 17.8663 16.2073 16.8248 17.587C15.7833 18.9668 15.1697 20.6219 15.0601 22.3471C12.767 21.8252 10.3711 21.9887 8.17009 22.8171C5.8748 23.6746 3.87987 25.1837 2.43028 27.1591C0.980681 29.1345 0.139524 31.4903 0.0100934 33.9371C-0.0572665 35.6049 0.213066 37.2692 0.804864 38.8299C1.39666 40.3907 2.29772 41.8157 3.45395 43.0196C4.61018 44.2235 5.99775 45.1813 7.53334 45.8356C9.06894 46.4899 10.7209 46.8271 12.3901 46.8271H40.0701" transform="translate(0 39.7029)" fill="#69C4CD"/>
</svg>
